<?xml version="1.0" standalone="no"?> <!DOCTYPE svg PUBLIC "-//W3C//DTD SVG 1.0//EN" "http://www.w3.org/TR/2001/REC-SVG-20010904/DTD/svg10.dtd" > <svg xmlns="http://www.w3.org/2000/svg" width="100%" height="100%">
<defs >
<font id="europecc" horiz-adv-x="370" ><font-face
    font-family="EuropeCondensedC"
    units-per-em="1000"
    panose-1="2 0 5 6 3 0 0 2 0 4"
    ascent="750"
    descent="-170"
    alphabetic="0" />
<missing-glyph horiz-adv-x="500" />
<glyph unicode=" " glyph-name="space" horiz-adv-x="257" />
<glyph unicode="!" glyph-name="exclam" horiz-adv-x="258" d="M94 749H169V197H94V749ZM94 99H169V0H94V99Z" />
<glyph unicode="&quot;" glyph-name="quotedbl" horiz-adv-x="286" d="M238 450H186V728H238V450ZM100 450H48V728H100V450Z" />
<glyph unicode="#" glyph-name="numbersign" horiz-adv-x="795" d="M358 436L309 296H443L492 436H358ZM378 490H511L599 734H663L577 490H736L717 436H557L507 296H679L661 242H489L403 0H338L425 242H290L202 0H138L224 242H59L79 296H244L294 436H116L133 490H313L399
734H463L378 490Z" />
<glyph unicode="$" glyph-name="dollar" horiz-adv-x="518" d="M237 -9Q186 -7 152 3T97 32T67 83T58 161V225H131V174Q131 141 135 118T151 81T182 60T233 54H237V349Q189 354 157 364T105 393T77 442T69 516V584Q69 636 81 668T115 720T168 747T237 759V821H288V759Q337
754 369 744T421 713T449 663T457 589V545H385V575Q385 608 381 630T365 667T336 688T288 696V418Q338 410 371 397T423 360T449 303T457 220Q457 159 452 118T430 50T379 9T288 -9V-92H237V-9ZM288 54Q344 58 364 82T385 162V247Q385 295 364 316T288 343V54ZM237
696Q209 694 191 688T161 669T146 639T141 594V514Q141 469 161 450T237 422V696Z" />
<glyph unicode="%" glyph-name="percent" horiz-adv-x="841" d="M795 171Q795 126 790 93T772 39T738 7T682 -4H626Q591 -4 569 6T535 38T517 93T512 171V286Q512 331 517 363T534 418T569 450T626 461H682Q716 461 737 451T772 418T790 364T795 286V171ZM730
280Q730 314 728 337T719 374T696 394T654 401Q627 401 612 396T589 377T579 341T577 285V177Q577 143 579 120T588 83T611 62T654 56Q681 56 696 62T718 82T728 120T730 177V280ZM328 461Q328 416 323 383T305 329T271 297T215 286H159Q124 286 102 296T68 328T50
383T45 461V576Q45 621 50 653T67 708T102 740T159 751H215Q249 751 270 741T305 708T323 654T328 576V461ZM263 570Q263 604 261 627T252 664T229 684T187 691Q160 691 145 686T122 667T112 631T110 575V467Q110 433 112 410T121 373T144 352T187 346Q214 346
229 352T251 372T261 410T263 467V570ZM560 758H622L280 -9H218L560 758Z" />
<glyph unicode="&amp;" glyph-name="ampersand" horiz-adv-x="537" d="M211 377Q209 377 207 377T201 378Q169 378 150 350T131 267V195Q131 154 137 127T159 82T201 58T267 51Q330 51 359 73T388 148V151L211 377ZM360 555V593Q360 621 357 640T343 670T314 686T265
691Q208 691 182 673T156 610Q156 591 163 573T182 537L395 256V420H459V183L568 47L515 -4L441 89Q424 33 382 12T262 -9Q205 -9 166 -1T102 28T67 83T56 170V290Q56 354 82 392T159 438L129 476Q119 489 110 501T95 529T84 563T80 611Q80 687 125 722T264 758Q312
758 343 750T392 723T418 674T425 598V555H360Z" />
<glyph unicode="&apos;" glyph-name="quotesingle" horiz-adv-x="148" d="M100 450H48V728H100V450Z" />
<glyph unicode="(" glyph-name="parenleft" horiz-adv-x="325" d="M265 692Q232 692 213 683T185 652T172 598T169 516V232Q169 184 171 151T184 96T213 66T265 56V-9H260Q212 -9 181 5T131 51T105 131T97 249V499Q97 568 104 617T131 697T182 743T265 758V692Z" />
<glyph unicode=")" glyph-name="parenright" horiz-adv-x="325" d="M60 758Q110 758 142 744T194 698T220 617T228 499V249Q228 180 221 131T195 51T145 6T65 -9H60V56Q93 56 112 65T141 96T153 150T156 232V516Q156 564 153 597T141 652T112 682T60 692V758Z" />
<glyph unicode="*" glyph-name="asterisk" horiz-adv-x="403" d="M196 494L135 368L82 402L143 527L196 494ZM314 402L261 368L200 494L253 527L314 402ZM199 641L261 767L313 733L252 608L199 641ZM387 598V536H260V598H387ZM83 733L135 767L197 641L144 608L83
733ZM14 536V598H140V536H14Z" />
<glyph unicode="+" glyph-name="plus" horiz-adv-x="861" d="M456 333H733V283H456V0H406V283H128V333H406V616H456V333Z" />
<glyph unicode="," glyph-name="comma" horiz-adv-x="258" d="M166 99V-17Q166 -65 153 -88T102 -111Q100 -111 95 -111T86 -109V-70Q106 -69 113 -62T120 -35V0H91V99H166Z" />
<glyph unicode="-" glyph-name="hyphen" horiz-adv-x="311" d="M43 310H268V248H43V310Z" />
<glyph unicode="." glyph-name="period" horiz-adv-x="258" d="M91 99H166V0H91V99Z" />
<glyph unicode="/" glyph-name="slash" horiz-adv-x="248" d="M204 760H260L16 -95H-40L204 760Z" />
<glyph unicode="0" glyph-name="zero" horiz-adv-x="517" d="M280 61Q317 61 339 71T372 102T386 158T390 242V506Q390 555 387 589T373 646T340 678T281 688H237Q200 688 179 678T146 646T131 590T128 506V242Q128 193 131 159T145 103T178 71T237 61H280ZM219
-9Q170 -9 138 6T87 52T61 131T53 244V504Q53 569 60 617T87 696T138 743T219 758H299Q348 758 380 743T431 697T457 617T465 504V244Q465 179 458 131T431 52T380 6T299 -9H219Z" />
<glyph unicode="1" glyph-name="one" horiz-adv-x="517" d="M340 0H270V668L115 477L69 521L254 749H340V0Z" />
<glyph unicode="2" glyph-name="two" horiz-adv-x="517" d="M63 511V532Q63 591 70 633T97 704T148 745T229 758H290Q339 758 370 746T421 709T447 643T455 548V473Q455 432 447 405T422 358T382 326T329 303L212 261Q167 244 146 207T124 98V72H450V0H54V98Q54
159 62 196T85 256T117 290T155 309L313 373Q333 381 345 392T364 419T373 456T375 507V566Q375 633 354 660T278 688H238Q204 688 185 680T155 654T141 608T138 537V511H63Z" />
<glyph unicode="3" glyph-name="three" horiz-adv-x="517" d="M69 523V533Q69 591 76 633T102 703T150 744T228 758H286Q332 758 362 746T411 709T436 646T444 554Q444 517 441 490T427 442T399 408T350 388Q408 368 429 328T451 221Q451 160 444 117T419 45T368
4T284 -9H223Q173 -9 141 4T90 44T63 114T55 216V246H130V211Q130 169 133 141T147 95T178 69T231 61H272Q326 61 348 89T371 183V242Q371 273 366 293T349 326T316 344T263 349H213V416H267Q322 416 345 439T369 516V566Q369 632 348 660T275 688H235Q203 688
185 680T156 654T144 608T141 537V523H69Z" />
<glyph unicode="4" glyph-name="four" horiz-adv-x="517" d="M341 670L96 241H341V670ZM411 241H482V171H411V0H341V171H41V276L310 749H411V241Z" />
<glyph unicode="5" glyph-name="five" horiz-adv-x="517" d="M429 749V679H151V454Q167 483 199 496T279 509Q370 509 411 461T453 308V222Q453 161 446 117T421 45T370 4T288 -9H227Q138 -9 101 39T63 195V215H137V199Q137 160 141 134T155 92T185 68T236 61H277Q330
61 351 89T373 184V268Q373 317 370 350T354 403T318 431T253 439Q157 439 145 371H81V749H429Z" />
<glyph unicode="6" glyph-name="six" horiz-adv-x="517" d="M380 569V578Q380 639 358 663T284 688H225Q191 688 171 680T141 654T127 608T124 537V396Q159 434 196 447T285 460Q379 460 421 421T463 288V216Q463 157 456 115T429 45T378 4T296 -9H221Q171 -9
139 4T88 44T62 114T54 216V533Q54 592 61 634T88 704T139 745T221 758H292Q451 758 451 576V569H380ZM288 61Q322 61 342 69T374 94T389 140T393 210V237Q393 278 390 306T375 352T344 378T290 386H229Q196 386 176 378T146 352T132 306T129 236V210Q129 169 132
141T145 95T176 69T229 61H288Z" />
<glyph unicode="7" glyph-name="seven" horiz-adv-x="517" d="M376 679H63V749H436V636L183 0H105L376 679Z" />
<glyph unicode="8" glyph-name="eight" horiz-adv-x="517" d="M130 181Q130 114 153 86T231 58H284Q338 58 362 86T387 181V241Q387 299 362 324T276 349H239Q179 349 155 324T130 241V181ZM132 520Q132 466 155 444T233 421H282Q336 421 360 443T385 520V593Q385
647 361 669T282 691H233Q179 691 156 669T132 593V520ZM299 758Q345 758 376 746T425 709T452 645T460 553Q460 516 456 489T441 441T411 408T362 388Q420 368 443 329T467 222Q467 161 460 118T433 46T381 5T296 -9H219Q167 -9 134 4T83 45T57 117T50 222Q50
289 72 328T153 388Q123 395 104 408T75 441T61 488T57 553Q57 606 64 645T90 709T139 746T216 758H299Z" />
<glyph unicode="9" glyph-name="nine" horiz-adv-x="517" d="M223 688Q189 688 170 681T140 657T128 613T125 544V514Q125 473 127 446T140 401T169 377T223 369H284Q318 369 337 377T367 402T381 447T384 516V542Q384 583 381 611T368 656T338 680T284 688H223ZM119
180V171Q119 111 140 86T214 61H288Q322 61 342 69T372 94T386 140T389 211V360Q354 322 317 310T229 297Q135 297 93 335T50 466V533Q50 592 57 634T84 704T135 745T217 758H292Q341 758 373 745T425 705T451 635T459 533V216Q459 157 452 115T425 45T374 4T292
-9H206Q125 -9 86 35T47 172V180H119Z" />
<glyph unicode=":" glyph-name="colon" horiz-adv-x="281" d="M103 99H178V0H103V99ZM103 523H178V424H103V523Z" />
<glyph unicode=";" glyph-name="semicolon" horiz-adv-x="281" d="M103 523H178V424H103V523ZM178 99V-17Q178 -65 165 -88T114 -111Q112 -111 107 -111T98 -109V-70Q118 -69 125 -62T132 -35V0H103V99H178Z" />
<glyph unicode="&lt;" glyph-name="less" horiz-adv-x="861" d="M212 310L728 101V46L133 289V331L728 575V520L212 310Z" />
<glyph unicode="=" glyph-name="equal" horiz-adv-x="861" d="M733 192H128V241H733V192ZM733 379H128V428H733V379Z" />
<glyph unicode="&gt;" glyph-name="greater" horiz-adv-x="861" d="M728 289L133 46V101L649 310L133 520V575L728 331V289Z" />
<glyph unicode="?" glyph-name="question" horiz-adv-x="470" d="M34 517V581Q34 671 70 714T187 758H266Q351 758 388 719T426 593V518Q426 479 420 450T400 398T363 358T307 328Q281 318 266 310T244 293T234 274T231 249V196H156V259Q156 286 159 304T174 336T206
362T259 389Q288 402 306 414T334 442T347 476T351 524V588Q351 617 347 636T332 667T300 683T249 688H197Q146 688 125 665T104 591V517H34ZM156 99H231V0H156V99Z" />
<glyph unicode="@" glyph-name="at" horiz-adv-x="1034" d="M685 488H733L662 204Q654 169 654 158Q654 136 668 124T709 111Q755 111 793 135T860 200T903 291T918 398Q918 461 893 514T820 607T708 668T561 691Q460 691 378 658T239 568T150 431T118 261Q118
179 147 113T230 0T356 -72T516 -98Q604 -98 686 -73T836 -1L856 -29Q707 -140 526 -140Q425 -140 340 -112T192 -31T95 99T60 273Q60 371 97 455T202 602T361 700T562 736Q648 736 723 712T854 643T942 535T974 395Q974 331 954 272T898 166T811 93T696 65Q598
65 598 142Q598 146 598 149T599 157Q573 112 536 89T451 65Q373 65 333 107T292 231Q292 290 310 340T361 428T436 486T527 507Q622 507 655 424L685 488ZM642 364Q632 412 604 438T533 464Q494 464 461 446T405 396T368 321T355 227Q355 170 382 139T459 107Q513
107 554 143T611 239L642 364Z" />
<glyph unicode="A" glyph-name="A" horiz-adv-x="504" d="M301 749L504 0H423L381 161H121L74 0H0L215 749H301ZM362 231L256 648L141 231H362Z" />
<glyph unicode="B" glyph-name="B" horiz-adv-x="542" d="M137 70H256Q298 70 327 74T375 89T403 121T412 177V246Q412 281 403 303T376 337T328 353T256 358H137V70ZM62 749H259Q316 749 357 743T424 721T462 673T474 593V527Q474 473 453 443T382 395Q438 380
462 344T487 241V169Q487 120 475 88T437 36T371 8T273 0H62V749ZM137 428H251Q291 428 319 431T365 444T391 471T399 518V602Q399 627 391 642T364 666T318 676T251 679H137V428Z" />
<glyph unicode="C" glyph-name="C" horiz-adv-x="508" d="M398 507V516Q398 562 393 594T376 646T342 676T287 686H246Q211 686 190 676T156 644T140 588T135 504V252Q135 197 137 161T151 103T185 72T246 63H288Q325 63 346 71T379 98T394 151T398 234V252H478V208Q478
97 436 44T302 -9H230Q174 -9 140 9T87 59T62 134T55 227V504Q55 635 99 696T249 758H289Q340 758 376 746T434 707T467 640T478 542V507H398Z" />
<glyph unicode="D" glyph-name="D" horiz-adv-x="566" d="M138 70H236Q300 70 338 80T397 114T424 174T431 266V475Q431 534 424 573T397 636T338 669T237 679H138V70ZM62 749H251Q325 749 375 735T455 688T498 604T511 477V271Q511 196 498 145T455 61T375 14T251
0H62V749Z" />
<glyph unicode="E" glyph-name="E" horiz-adv-x="425" d="M397 749V677H137V428H378V358H137V72H397V0H62V749H397Z" />
<glyph unicode="F" glyph-name="F" horiz-adv-x="395" d="M385 749V677H137V428H365V358H137V0H62V749H385Z" />
<glyph unicode="G" glyph-name="G" horiz-adv-x="550" d="M415 526Q415 612 392 649T304 686H247Q212 686 190 676T156 644T140 588T135 504V252Q135 197 138 161T152 103T186 72T247 63H311Q350 63 372 72T405 102T419 160T422 252V301H291V373H502V227Q502 176
496 133T470 59T417 9T326 -9H231Q175 -9 141 8T87 57T62 132T55 227V504Q55 635 99 696T250 758H306Q407 758 451 709T495 552V526H415Z" />
<glyph unicode="H" glyph-name="H" horiz-adv-x="572" d="M137 428H435V749H510V0H435V358H137V0H62V749H137V428Z" />
<glyph unicode="I" glyph-name="I" horiz-adv-x="205" d="M140 0H65V749H140V0Z" />
<glyph unicode="J" glyph-name="J" horiz-adv-x="443" d="M381 749V165Q381 115 372 82T341 28T284 0T198 -9Q147 -9 112 -1T56 28T25 81T15 165V253H90V193Q90 157 94 132T110 91T143 68T197 61Q230 61 251 68T285 90T301 131T306 193V749H381Z" />
<glyph unicode="K" glyph-name="K" horiz-adv-x="532" d="M137 428H176L414 749H498L233 394L532 0H438L167 358H137V0H62V749H137V428Z" />
<glyph unicode="L" glyph-name="L" horiz-adv-x="368" d="M137 72H358V0H62V749H137V72Z" />
<glyph unicode="M" glyph-name="M" horiz-adv-x="790" d="M62 749H181L390 90L614 749H728V0H660V685L427 0H352L130 685V0H62V749Z" />
<glyph unicode="N" glyph-name="N" horiz-adv-x="585" d="M172 749L450 83V749H523V0H408L135 654V0H62V749H172Z" />
<glyph unicode="O" glyph-name="O" horiz-adv-x="563" d="M259 686Q220 686 196 676T159 645T140 588T135 504V244Q135 194 139 160T157 104T195 73T258 63H304Q343 63 367 72T404 104T423 160T428 244V504Q428 553 424 588T406 644T368 676T305 686H259ZM314
758Q420 758 464 696T508 504V244Q508 179 498 131T464 52T404 6T314 -9H250Q197 -9 160 6T99 52T66 131T55 244V504Q55 569 65 617T99 696T159 743T250 758H314Z" />
<glyph unicode="P" glyph-name="P" horiz-adv-x="524" d="M137 0H62V749H264Q322 749 362 742T428 716T465 660T476 565V478Q476 419 465 383T429 326T363 299T264 292H137V0ZM137 362H253Q292 362 319 364T363 376T388 405T396 456V585Q396 618 388 637T363 665T319
676T253 679H137V362Z" />
<glyph unicode="Q" glyph-name="Q" horiz-adv-x="563" d="M280 303L425 182Q427 194 427 214T428 244V504Q428 553 423 588T405 644T367 676T304 686H259Q220 686 196 676T159 645T140 588T135 504V244Q135 194 140 160T158 104T196 73T259 63H304Q384 63 408
111L242 249L280 303ZM520 19L469 61Q426 -9 313 -9H249Q196 -9 159 6T99 52T66 131T55 244V504Q55 569 65 617T99 696T159 743T249 758H313Q419 758 463 697T508 504V244Q508 209 506 179T497 123L557 73L520 19Z" />
<glyph unicode="R" glyph-name="R" horiz-adv-x="547" d="M137 0H62V749H273Q332 749 372 742T438 716T474 660T485 565V493Q485 421 458 384T371 339Q427 328 453 291T480 183V0H405V150Q405 194 399 222T378 268T335 292T265 299H137V0ZM137 371H262Q301 371
328 374T373 389T397 424T405 486V584Q405 618 397 637T372 665T327 677T262 679H137V371Z" />
<glyph unicode="S" glyph-name="S" horiz-adv-x="524" d="M396 544V570Q396 602 392 624T376 660T345 680T297 686H236Q181 686 162 664T142 585V504Q142 486 146 474T165 452T207 436T282 421Q334 413 371 403T431 374T465 329T476 261V153Q476 69 433 30T297
-9H230Q175 -9 140 3T85 40T56 106T48 205V243H126V179Q126 147 131 125T147 89T178 69T227 63H301Q356 63 376 85T396 164V229Q396 266 388 287T361 321T308 339T222 351Q178 356 148 366T98 393T71 437T62 503V597Q62 680 106 719T241 758H295Q344 758 378 748T435
714T466 655T476 567V544H396Z" />
<glyph unicode="T" glyph-name="T" horiz-adv-x="411" d="M404 749V677H243V0H168V677H7V749H404Z" />
<glyph unicode="U" glyph-name="U" horiz-adv-x="541" d="M137 749V209Q137 167 141 139T159 94T197 70T262 63H283Q323 63 347 70T383 94T400 139T404 209V749H479V172Q479 76 432 34T279 -9H262Q155 -9 109 33T62 172V749H137Z" />
<glyph unicode="V" glyph-name="V" horiz-adv-x="491" d="M86 749L241 100L410 749H485L282 0H196L6 749H86Z" />
<glyph unicode="W" glyph-name="W" horiz-adv-x="779" d="M80 749L213 96L353 749H427L560 96L699 749H773L602 0H515L389 601L255 0H168L6 749H80Z" />
<glyph unicode="X" glyph-name="X" horiz-adv-x="465" d="M95 749L236 441L375 749H449L280 379L463 0H380L228 332L77 0H2L185 394L15 749H95Z" />
<glyph unicode="Y" glyph-name="Y" horiz-adv-x="461" d="M83 749L234 387L386 749H461L272 313V0H197V313L0 749H83Z" />
<glyph unicode="Z" glyph-name="Z" horiz-adv-x="423" d="M393 749V679L102 72H398V0H25V69L316 677H35V749H393Z" />
<glyph unicode="[" glyph-name="bracketleft" horiz-adv-x="325" d="M114 809H250V749H181V0H250V-60H114V809Z" />
<glyph unicode="\" glyph-name="backslash" horiz-adv-x="248" d="M288 -95H232L-12 760H44L288 -95Z" />
<glyph unicode="]" glyph-name="bracketright" horiz-adv-x="325" d="M211 -60H75V0H144V749H75V809H211V-60Z" />
<glyph unicode="^" glyph-name="asciicircum" horiz-adv-x="1033" d="M819 455H747L516 684L284 455H212L481 735H551L819 455Z" />
<glyph unicode="_" glyph-name="underscore" horiz-adv-x="518" d="M518 -225H0V-174H518V-225Z" />
<glyph unicode="`" glyph-name="grave" horiz-adv-x="517" d="M275 580L134 757H224L329 580H275Z" />
<glyph unicode="a" glyph-name="a" horiz-adv-x="423" d="M202 53Q261 53 282 78T304 164Q304 222 285 243T210 265Q181 265 163 260T135 242T120 208T116 153Q116 100 135 77T202 53ZM62 381V405Q62 475 99 504T215 534Q259 534 288 527T336 502T361 455T369
382V0H302V48Q283 15 254 3T176 -9Q110 -9 78 23T46 124V194Q46 260 81 293T184 327Q226 327 254 317T302 283V364Q302 396 299 417T285 450T258 467T212 472Q170 472 151 458T131 406V381H62Z" />
<glyph unicode="b" glyph-name="b" horiz-adv-x="435" d="M54 762H121V467Q165 534 246 534Q326 534 356 478T387 310V230Q387 168 381 123T358 49T315 5T248 -9Q205 -9 174 7T117 61V0H54V762ZM121 220Q121 177 125 146T142 94T174 63T227 53Q280 53 298 93T317
217V307Q317 390 299 431T227 472Q195 472 175 462T142 430T126 378T121 304V220Z" />
<glyph unicode="c" glyph-name="c" horiz-adv-x="419" d="M306 353V362Q306 420 286 443T214 467Q182 467 163 460T134 436T121 392T118 326V201Q118 162 121 135T134 90T164 66T217 58Q247 58 266 64T296 83T311 119T315 173V194H385V172Q385 76 345 34T220 -9Q172
-9 139 2T86 38T57 103T48 201V325Q48 383 57 423T86 487T139 523T221 534Q303 534 339 498T376 378V353H306Z" />
<glyph unicode="d" glyph-name="d" horiz-adv-x="435" d="M314 304Q314 346 310 377T293 430T261 461T208 472Q155 472 137 432T118 308V216Q118 132 136 93T208 53Q240 53 260 63T293 93T309 145T314 220V304ZM381 0H319V61Q293 23 262 7T187 -9Q147 -9 120 5T77
48T55 123T48 230V310Q48 422 79 478T190 534Q270 534 314 467V762H381V0Z" />
<glyph unicode="e" glyph-name="e" horiz-adv-x="439" d="M324 310V348Q324 383 320 406T304 444T272 465T221 472Q191 472 171 466T139 445T123 407T118 348V310H324ZM118 248V200Q118 160 121 133T134 89T165 65T219 58Q249 58 270 62T304 76T322 103T328 147V163H391V147Q391
62 350 27T219 -9Q171 -9 138 2T85 39T57 104T48 202V326Q48 384 56 424T85 488T139 523T220 534Q268 534 301 523T354 488T382 424T391 326V248H118Z" />
<glyph unicode="f" glyph-name="f" horiz-adv-x="273" d="M260 700Q253 701 242 701T223 702Q178 702 162 682T145 612V523H260V461H145V0H78V461H14V523H78V617Q78 693 111 727T219 762Q229 762 239 762T260 760V700Z" />
<glyph unicode="g" glyph-name="g" horiz-adv-x="435" d="M314 303Q314 346 310 377T293 430T261 461T208 472Q155 472 137 431T118 305V246Q118 163 135 123T205 83Q237 83 258 93T291 123T309 175T314 249V303ZM381 525V-20Q381 -67 372 -100T344 -154T292 -184T214
-194Q58 -194 58 -85V-59H126V-71Q126 -104 147 -118T214 -132Q248 -132 268 -125T298 -103T311 -62T314 0V87Q271 21 190 21Q110 21 79 75T48 243V294Q48 355 54 400T77 475T120 519T187 534Q230 534 261 517T319 462V525H381Z" />
<glyph unicode="h" glyph-name="h" horiz-adv-x="435" d="M121 471Q143 503 172 518T244 534Q320 534 350 490T381 351V0H314V333Q314 404 297 438T229 472Q166 472 144 428T121 293V0H54V762H121V471Z" />
<glyph unicode="i" glyph-name="i" horiz-adv-x="175" d="M121 0H54V525H121V0ZM54 713H121V625H54V713Z" />
<glyph unicode="j" glyph-name="j" horiz-adv-x="175" d="M54 713H121V625H54V713ZM121 525V-44Q121 -84 117 -112T102 -159T71 -185T20 -193Q9 -193 -4 -190V-129H6Q23 -129 33 -125T47 -110T53 -84T54 -45V525H121Z" />
<glyph unicode="k" glyph-name="k" horiz-adv-x="391" d="M121 310H147L288 525H361L206 288L391 0H312L154 248H121V0H54V762H121V310Z" />
<glyph unicode="l" glyph-name="l" horiz-adv-x="175" d="M121 0H54V762H121V0Z" />
<glyph unicode="m" glyph-name="m" horiz-adv-x="669" d="M117 464Q154 534 239 534Q332 534 358 457Q395 534 483 534Q557 534 586 491T615 351V0H548V333Q548 405 532 438T467 472Q408 472 388 427T368 294V0H301V333Q301 405 285 438T220 472Q161 472 141 427T121
294V0H54V525H117V464Z" />
<glyph unicode="n" glyph-name="n" horiz-adv-x="435" d="M116 464Q156 534 244 534Q320 534 350 491T381 351V0H314V333Q314 405 297 438T229 472Q166 472 144 428T121 294V0H54V525H116V464Z" />
<glyph unicode="o" glyph-name="o" horiz-adv-x="440" d="M118 201Q118 161 121 134T136 90T167 66T221 58Q254 58 274 65T304 89T318 133T322 200V325Q322 365 319 392T305 435T274 459T221 467Q188 467 168 460T137 437T122 393T118 326V201ZM392 202Q392 144
384 104T355 38T302 2T221 -9Q173 -9 140 2T86 38T57 103T48 201V325Q48 383 57 423T86 487T140 523T222 534Q270 534 303 523T355 488T383 424T392 326V202Z" />
<glyph unicode="p" glyph-name="p" horiz-adv-x="435" d="M121 220Q121 178 125 147T142 94T174 63T227 53Q280 53 298 93T317 217V307Q317 391 299 431T227 472Q195 472 175 462T142 431T126 379T121 304V220ZM117 463Q143 500 174 517T248 534Q288 534 315 520T358
476T380 402T387 295V214Q387 101 357 46T246 -9Q164 -9 121 58V-194H54V525H117V463Z" />
<glyph unicode="q" glyph-name="q" horiz-adv-x="435" d="M381 -194H314V59Q270 -9 190 -9Q149 -9 122 5T79 47T55 117T48 214V299Q48 418 77 476T187 534Q230 534 261 517T318 463V525H381V-194ZM314 305Q314 347 310 378T293 430T261 461T208 472Q155 472 137
432T118 308V218Q118 135 136 94T208 53Q240 53 260 63T293 95T309 147T314 221V305Z" />
<glyph unicode="r" glyph-name="r" horiz-adv-x="350" d="M116 457Q135 497 164 515T238 534Q297 534 321 500T346 391V350H284V375Q284 429 270 452T219 476Q161 476 141 441T121 331V0H54V525H116V457Z" />
<glyph unicode="s" glyph-name="s" horiz-adv-x="413" d="M297 389V403Q297 442 282 457T229 472H195Q153 472 137 458T120 406V356Q120 342 124 333T142 317T180 306T243 297Q280 293 304 284T343 261T363 227T369 182V112Q369 -9 231 -9H172Q135 -9 111 -3T71
18T50 56T44 115V168H110V136Q110 113 112 97T121 72T141 58T178 53H225Q266 53 282 67T299 120V169Q299 189 294 201T277 220T242 232T183 243Q147 249 122 255T81 271T58 299T50 343V413Q50 534 188 534H235Q272 534 296 528T336 507T357 469T363 410V389H297Z"
/>
<glyph unicode="t" glyph-name="t" horiz-adv-x="349" d="M140 526H310V464H140V163Q140 134 141 113T149 79T168 59T203 53Q238 53 251 71T264 131V181H324V143Q324 63 295 27T195 -9Q158 -9 135 0T98 27T79 74T73 142V464H19V526H73V652H140V526Z" />
<glyph unicode="u" glyph-name="u" horiz-adv-x="435" d="M121 525V192Q121 120 139 87T207 53Q270 53 292 97T314 231V525H381V0H319V61Q279 -9 191 -9Q115 -9 85 34T54 174V525H121Z" />
<glyph unicode="v" glyph-name="v" horiz-adv-x="388" d="M83 525L196 65L309 525H376L241 0H147L12 525H83Z" />
<glyph unicode="w" glyph-name="w" horiz-adv-x="634" d="M81 525L174 67L273 525H361L460 67L553 525H622L509 0H418L317 468L217 0H126L12 525H81Z" />
<glyph unicode="x" glyph-name="x" horiz-adv-x="390" d="M93 525L196 333L298 525H369L230 278L388 0H310L192 212L73 0H2L157 273L16 525H93Z" />
<glyph unicode="y" glyph-name="y" horiz-adv-x="388" d="M83 525L196 65L309 525H376L241 0Q229 -48 217 -84T188 -145T149 -182T95 -195Q84 -195 73 -193T50 -189V-127Q60 -129 74 -129Q111 -129 132 -108T164 -42L174 0H147L12 525H83Z" />
<glyph unicode="z" glyph-name="z" horiz-adv-x="343" d="M315 525V457L95 62H315V0H28V69L248 463H50V525H315Z" />
<glyph unicode="{" glyph-name="braceleft" horiz-adv-x="506" d="M406 694H387Q352 694 330 688T296 666T280 627T275 567V445Q275 407 271 379T257 329T227 294T176 271Q207 262 226 248T256 213T271 164T275 97V-25Q275 -60 279 -84T295 -124T328 -145T383
-152H406V-205H382Q329 -205 296 -196T245 -165T220 -108T213 -20V104Q213 142 207 167T188 209T156 233T110 245V298Q136 301 155 309T187 334T206 375T213 439V562Q213 614 219 650T245 707T296 738T382 748H406V694Z" />
<glyph unicode="|" glyph-name="bar" horiz-adv-x="518" d="M287 -241H232V793H287V-241Z" />
<glyph unicode="}" glyph-name="braceright" horiz-adv-x="506" d="M100 748H124Q176 748 209 739T261 708T286 650T293 562V439Q293 401 299 376T318 334T350 310T396 298V245Q370 241 351 233T319 209T300 168T293 104V-20Q293 -73 287 -108T262 -165T210 -196T124
-205H100V-152H123Q157 -152 178 -146T211 -124T227 -85T231 -25V97Q231 135 235 163T249 213T279 248T330 271Q299 280 280 294T250 329T235 378T231 445V567Q231 603 227 627T210 666T176 687T119 694H100V748Z" />
<glyph unicode="~" glyph-name="asciitilde" horiz-adv-x="861" d="M772 323Q670 251 576 251Q535 251 500 262T430 285T360 309T286 320Q239 320 192 299T90 240V297Q143 333 191 351T286 370Q326 370 362 359T434 335T503 311T576 300Q624 300 671 321T772 380V323Z" />
</font>
</defs>
</svg>
